<svg xmlns="http://www.w3.org/2000/svg" xml:space="preserve" width="2000" height="456" data-id="lg_7zYno9uzB6tesyKGWW" data-version="1" viewBox="0 0 2000 456"><g data-padding="20"><g transform="translate(10 8.29)scale(.96364)"><rect width="324.894" height="271.2" x="459.221" y="-313.118" fill="none" rx="0" ry="0" transform="translate(518.05 497.69)"/><path fill="#1f09ff" d="m972.938 395.072 84.48-176.64h2.64l84.96 176.64h-30.96l-15.12-34.56h-80.88l-15.12 34.56Zm86.16-125.52h-.48l-10.56 24-19.2 42.72h59.52l-18.96-42.48Zm172.56 127.92q-19.92 0-36.6-6.96t-28.8-19.32-18.72-29.28-6.6-36.6q0-19.44 6.72-35.76t18.96-28.32 29.04-18.6 36.72-6.6q15.6 0 27 2.76t18.24 6 8.76 5.16l-10.56 22.56q-1.68-1.44-6.72-4.32t-14.04-5.28-23.16-2.4q-19.68 0-33.6 8.52t-21.36 22.92-7.44 31.92q0 20.4 8.16 36.12t22.32 24.48 32.16 8.76q10.32 0 21-2.64t18.12-8.88v-34.08h-36.24v-24.72h62.88v69.12q-7.92 10.08-24.96 17.76t-41.28 7.68"/><path stroke="#1f09ff" stroke-width="5" d="M752.551 218.293h149.82m44.13-63.802V.23m-38.763 176.156L800.061 68.708m119.301 183.409L811.686 359.794M1093.87 62.358l-110.5 110.5" vector-effect="non-scaling-stroke"/></g><path fill="transparent" stroke="transparent" d="M725 0h550v456H725z"/></g></svg>